<svg width="72" height="45" viewBox="0 0 72 45" fill="none" xmlns="http://www.w3.org/2000/svg">
<path fill-rule="evenodd" clip-rule="evenodd" d="M47.5605 21.0624C46.5075 20.1422 45.4542 18.8547 44.5684 18.4523C43.6826 18.4523 43.8696 19.4528 43.004 19.3377C42.1376 19.2571 40.2286 18.0155 39.3233 17.9236C38.3978 17.8433 38.4569 18.6134 37.9352 18.8778C37.423 19.1423 36.8826 19.464 36.1636 19.4872C35.4648 19.5216 34.648 18.8663 33.792 19.0617C33.1028 19.2803 33.329 20.0507 32.355 20.5793C31.3707 21.1199 29.4616 21.3382 28.0442 22.1889C26.9813 22.7986 25.7122 24.3271 24.4916 25.4081C25.6825 28.363 28.2705 31.6166 32.3844 32.3175C33.6443 32.8581 38.3978 32.3062 39.3324 31.559C41.38 30.3865 41.5178 28.7998 41.5178 27.7077C41.5964 26.6844 41.1435 25.6382 40.2777 25.5691C37.9352 24.9712 37.4528 22.5337 38.4669 21.5336C38.8408 21.0852 39.2049 20.8207 40.4744 20.8555C43.3383 21.1081 46.1339 21.2234 47.5605 21.0624ZM35.9962 0C45.7913 0 54.688 2.4142 61.1534 6.31736C67.8502 10.3602 71.9923 16.0224 71.9923 22.3457C71.9923 28.669 67.8502 34.3313 61.1534 38.3741C54.688 42.2772 45.7913 44.6914 35.9962 44.6914C26.2011 44.6914 17.3044 42.2772 10.839 38.3741C4.14211 34.3313 0 28.669 0 22.3457C0 16.0224 4.14211 10.3602 10.839 6.31736C17.3044 2.4142 26.2011 0 35.9962 0ZM59.6858 8.88564C53.6505 5.24215 45.2769 2.98853 35.9962 2.98853C26.7154 2.98853 18.3419 5.24215 12.3065 8.88564C6.50236 12.3895 2.91237 17.1531 2.91237 22.3457C2.91237 27.5383 6.50236 32.3019 12.3065 35.8058C18.3419 39.4493 26.7154 41.7029 35.9962 41.7029C45.2769 41.7029 53.6505 39.4493 59.6858 35.8058C65.49 32.3019 69.0799 27.5383 69.0799 22.3457C69.0799 17.1531 65.49 12.3895 59.6858 8.88564ZM37.2514 15.3704C36.6637 15.2503 36.5824 14.8115 36.8487 13.7997L37.3291 12.4754L37.7226 13.8797C37.9413 14.6578 37.8022 15.2374 37.2514 15.3704ZM33.3212 16.2664C32.5194 16.1029 32.4084 15.504 32.772 14.1224L33.4278 12.3143L33.9656 14.2312C34.2637 15.2935 34.074 16.085 33.3212 16.2664ZM28.1888 19.3363C27.0117 19.0964 26.8483 18.2173 27.3827 16.1899L28.3448 13.5363L29.1345 16.3498C29.572 17.9089 29.2931 19.0704 28.1888 19.3363ZM23.8716 23.649C25.003 22.6948 26.9122 21.315 27.9851 20.752C29.2743 20.0507 30.8001 19.8437 31.7252 19.3031C32.6599 18.7627 32.6405 17.7282 33.4767 17.4865C34.2839 17.2455 35.554 18.0383 36.2326 18.0383C36.9116 18.0383 36.9803 17.8433 37.4528 17.5787C37.9253 17.3142 38.142 16.406 39.1263 16.4407C40.1103 16.4632 42.0197 17.6707 42.8464 17.7857C43.6733 17.8773 43.1513 17.015 44.0764 16.9463C46.0744 17.5556 48.3578 19.602 50.0505 20.867C51.5565 20.752 53.4065 20.9357 54.2826 21.3837C54.8631 21.5795 54.8436 22.7295 54.8436 23.5459C54.1942 25.7301 52.1767 24.1437 52.1767 27.4779C52.1767 27.4779 52.2355 30.2947 52.4125 32.18C52.9048 33.4679 53.5056 33.87 54.5185 34.7781C54.6071 35.6064 53.6529 36.9855 53.2888 36.8708C52.7965 36.9971 51.4576 35.6405 49.9225 35.7096C38.6341 36.066 27.2962 41.3203 17.1989 33.4679C9.72875 27.9603 9.73846 16.36 17.2181 10.9907C20.6922 8.26588 26.0661 6.82886 32.7092 6.82886C37.2364 6.82886 41.764 8.12794 45.9957 8.12794C47.9052 7.71406 49.8829 5.12732 52.0873 8.5304C53.4854 10.2438 54.3517 13.1524 51.8419 15.1529C48.0819 16.9922 44.4409 16.199 41.6552 13.9568C39.2741 11.1057 29.3236 8.62258 25.3085 14.4053C23.9503 16.2797 23.2414 19.8897 23.8716 23.649Z" fill="black"/>
</svg>
